# Blender v2.62 (sub 0) OBJ File: 'demo_scene.blend'
# www.blender.org
mtllib demo_scene.mtl
o water_container_water_container_mesh
v 10.206712 0.187619 0.158074
v 10.206712 0.187620 10.158073
v 0.206710 0.187620 10.158073
v 0.206713 0.187619 0.158072
v 10.206715 10.187619 0.158076
v 10.206709 10.187619 10.158077
v 0.206709 10.187620 10.158072
v 0.206711 10.187619 0.158074
v 9.639530 0.761738 0.725255
v 9.639530 0.761738 9.590892
v 0.773892 0.761738 9.590892
v 0.773894 0.761738 0.725254
v 9.604923 9.781393 0.759867
v 9.604918 9.781394 9.556286
v 0.808500 9.781395 9.556281
v 0.808502 9.781393 0.759865
vn -0.000000 0.828838 0.559489
vn -0.559489 0.828838 -0.000000
vn -0.559488 0.828839 -0.000000
vn 0.559488 0.828838 0.000000
vn 0.559489 0.828838 -0.000000
vn 0.000000 0.828838 -0.559488
vn -0.000000 -0.003837 0.999993
vn 0.999993 -0.003837 0.000000
vn 0.000001 -0.003837 -0.999993
vn 0.000000 -0.003837 -0.999993
vn -0.999993 -0.003837 -0.000001
vn -0.999993 -0.003837 0.000000
vn 0.000000 1.000000 -0.000000
vn 0.000000 0.000000 -1.000000
vn -1.000000 -0.000000 -0.000000
vn 0.000000 -0.000000 1.000000
vn -0.000001 0.000000 1.000000
vn 1.000000 -0.000000 0.000000
vn 1.000000 0.000000 0.000001
vn 0.000000 -1.000000 0.000000
usemtl Material.001
s off
f 5//1 8//1 16//1
f 5//1 16//1 13//1
f 6//2 5//2 13//2
f 6//3 13//3 14//3
f 8//4 7//4 15//4
f 8//5 15//5 16//5
f 7//6 6//6 14//6
f 7//6 14//6 15//6
f 12//7 9//7 16//7
f 9//7 13//7 16//7
f 16//8 15//8 11//8
f 16//8 11//8 12//8
f 15//9 14//9 11//9
f 14//10 10//10 11//10
f 14//11 13//11 10//11
f 13//12 9//12 10//12
f 11//13 10//13 12//13
f 10//13 9//13 12//13
f 5//14 1//14 4//14
f 5//14 4//14 8//14
f 3//15 7//15 8//15
f 3//15 8//15 4//15
f 2//16 6//16 3//16
f 6//17 7//17 3//17
f 1//18 5//18 2//18
f 5//19 6//19 2//19
f 1//20 2//20 3//20
f 1//20 3//20 4//20
